# xmcd
#
# Track frame offsets:
# 150
# 20856
# 38198
#
# Disc length: 805 seconds
#
#
# Revision: 0
# Processed by: cddbd v1.5.1PL2 Copyright (c) Steve Scherf et al.
# Submitted via: FreeRIP 2.945 
#
DISCID=21032303
DTITLE=?? - ???/??????/????
DYEAR=2004
DGENRE=JPop
TTITLE0=???
TTITLE1=??????
TTITLE2=????
EXTD=YEAR: 2004
EXTT0=
EXTT1=
EXTT2=
PLAYORDER=
